{"accessors" : [{"bufferView" : 0, "byteOffset" : 0, "componentType" : 5123, "count" : 435, "type" : "SCALAR", "max" : [434], "min" : [0]}, {"bufferView" : 1, "byteOffset" : 0, "componentType" : 5126, "count" : 435, "type" : "VEC3", "max" : [1.7928506135940552, 2.2078728675842285, 10.27525806427002], "min" : [-2.7079381942749023, -2.1945791244506836, 0], "name" : "POSITION"}, {"bufferView" : 1, "byteOffset" : 12, "componentType" : 5126, "count" : 435, "type" : "VEC3", "max" : [0.9992288947105408, 0.9868791103363037, 0.9446430802345276], "min" : [-0.9837546348571777, -0.9851726293563843, -1.0000044107437134], "name" : "NORMAL"}, {"bufferView" : 1, "byteOffset" : 24, "componentType" : 5126, "count" : 435, "type" : "VEC2", "max" : [0.9381281733512878, -0.0027096550911664963], "min" : [0.002711449284106493, -0.7740945816040039], "name" : "TEXCOORD_0"}, {"bufferView" : 0, "byteOffset" : 872, "componentType" : 5123, "count" : 1140, "type" : "SCALAR", "max" : [1139], "min" : [0]}, {"bufferView" : 2, "byteOffset" : 0, "componentType" : 5126, "count" : 1140, "type" : "VEC3", "max" : [4.1567888259887695, 5.456007957458496, 10.016468048095703], "min" : [-4.402393817901611, -4.999513626098633, 6.1425089836120605], "name" : "POSITION"}, {"bufferView" : 2, "byteOffset" : 12, "componentType" : 5126, "count" : 1140, "type" : "VEC3", "max" : [0.9992288947105408, 0.9534656405448914, 1.0000044107437134], "min" : [-0.9979064464569092, -0.9871271252632141, -0.993284285068512], "name" : "NORMAL"}, {"bufferView" : 2, "byteOffset" : 24, "componentType" : 5126, "count" : 1140, "type" : "VEC2", "max" : [0.9971185922622681, -0.002701982855796814], "min" : [0.002708640182390809, -0.9950290322303772], "name" : "TEXCOORD_0"}, {"bufferView" : 0, "byteOffset" : 3152, "componentType" : 5123, "count" : 3048, "type" : "SCALAR", "max" : [3047], "min" : [0]}, {"bufferView" : 3, "byteOffset" : 0, "componentType" : 5126, "count" : 3048, "type" : "VEC3", "max" : [4.486679553985596, 5.598247051239014, 16.72641372680664], "min" : [-6.1038947105407715, -2.5662014484405518, 5.4430036544799805], "name" : "POSITION"}, {"bufferView" : 3, "byteOffset" : 12, "componentType" : 5126, "count" : 3048, "type" : "VEC3", "max" : [0.9906898140907288, 0.9988546371459961, 0.9997594952583313], "min" : [-0.9908461570739746, -0.9987210631370544, -0.9881042242050171], "name" : "NORMAL"}, {"bufferView" : 3, "byteOffset" : 24, "componentType" : 5126, "count" : 3048, "type" : "VEC2", "max" : [0.9955075979232788, -0.002702459692955017], "min" : [0.0027023206930607557, -0.9972985982894897], "name" : "TEXCOORD_0"}, {"bufferView" : 0, "byteOffset" : 9248, "componentType" : 5123, "count" : 603, "type" : "SCALAR", "max" : [602], "min" : [0]}, {"bufferView" : 4, "byteOffset" : 0, "componentType" : 5126, "count" : 603, "type" : "VEC3", "max" : [-1.5548146963119507, -1.239614486694336, 12.334739685058594], "min" : [-4.818020820617676, -4.455544471740723, 8.819619178771973], "name" : "POSITION"}, {"bufferView" : 4, "byteOffset" : 12, "componentType" : 5126, "count" : 603, "type" : "VEC3", "max" : [0.9686563014984131, 0.9499372839927673, 0.9836536645889282], "min" : [-0.9311040043830872, -0.9804309606552124, -0.9861648082733154], "name" : "NORMAL"}, {"bufferView" : 4, "byteOffset" : 24, "componentType" : 5126, "count" : 603, "type" : "VEC2", "max" : [0.9956669211387634, -0.0027114171534776688], "min" : [0.030649270862340927, -0.9932296276092529], "name" : "TEXCOORD_0"}], "asset" : {"generator" : "Aspose.3D 22.1", "version" : "2.0"}, "buffers" : [{"uri" : "data:application/octet-stream;base64,", "byteLength" : 177708}], "bufferViews" : [{"buffer" : 0, "byteOffset" : 0, "byteLength" : 10456, "target" : 34963}, {"buffer" : 0, "byteOffset" : 10460, "byteLength" : 13920, "byteStride" : 32, "target" : 34962}, {"buffer" : 0, "byteOffset" : 24384, "byteLength" : 36480, "byteStride" : 32, "target" : 34962}, {"buffer" : 0, "byteOffset" : 60868, "byteLength" : 97536, "byteStride" : 32, "target" : 34962}, {"buffer" : 0, "byteOffset" : 158408, "byteLength" : 19296, "byteStride" : 32, "target" : 34962}], "materials" : [{"name" : "", "pbrMetallicRoughness" : {"baseColorFactor" : [0.8000000715255737, 0.14552806317806244, 0.060454949736595154, 1], "metallicFactor" : 0, "roughnessFactor" : 0}, "emissiveFactor" : [0, 0, 0], "alphaMode" : "OPAQUE", "doubleSided" : false}, {"name" : "", "pbrMetallicRoughness" : {"baseColorFactor" : [0.26661428809165955, 0.6444705724716187, 0.12768016755580902, 1], "metallicFactor" : 0, "roughnessFactor" : 0}, "emissiveFactor" : [0, 0, 0], "alphaMode" : "OPAQUE", "doubleSided" : false}, {"name" : "", "pbrMetallicRoughness" : {"baseColorFactor" : [0.32893842458724976, 0.8000000715255737, 0.15640904009342194, 1], "metallicFactor" : 0, "roughnessFactor" : 0}, "emissiveFactor" : [0, 0, 0], "alphaMode" : "OPAQUE", "doubleSided" : false}, {"name" : "", "pbrMetallicRoughness" : {"baseColorFactor" : [0.20476172864437103, 0.5805202722549438, 0.0893389880657196, 1], "metallicFactor" : 0, "roughnessFactor" : 0}, "emissiveFactor" : [0, 0, 0], "alphaMode" : "OPAQUE", "doubleSided" : false}], "meshes" : [{"primitives" : [{"attributes" : {"POSITION" : 1, "NORMAL" : 2, "TEXCOORD_0" : 3}, "indices" : 0, "material" : 0, "mode" : 4}, {"attributes" : {"POSITION" : 5, "NORMAL" : 6, "TEXCOORD_0" : 7}, "indices" : 4, "material" : 1, "mode" : 4}, {"attributes" : {"POSITION" : 9, "NORMAL" : 10, "TEXCOORD_0" : 11}, "indices" : 8, "material" : 2, "mode" : 4}, {"attributes" : {"POSITION" : 13, "NORMAL" : 14, "TEXCOORD_0" : 15}, "indices" : 12, "material" : 3, "mode" : 4}], "name" : "Tree"}], "nodes" : [{"matrix" : [100, 0, 0, 0, 0, -1.6292067961387602E-05, -99.99999999999868, 0, 0, 99.99999999999868, -1.6292067961387602E-05, 0, 0, 0, 0, 1], "mesh" : 0, "name" : "Tree"}], "scene" : 0, "scenes" : [{"nodes" : [0]}]}